<svg viewBox="0 0 232 179" fill="none" xmlns="http://www.w3.org/2000/svg">
<path d="M93.5127 136.783C85.0379 127.2 60.0275 114.19 66.6069 99.2588C72.2059 86.5542 99.0246 88.1259 95.8003 72.8017C93.8831 63.7426 91.4213 56.015 97.2382 45.7116C103.6 34.4914 122.597 40.6035 129.177 30.191C134.841 21.241 127.477 7.42306 139.176 1.44184C149.547 -3.86267 162.095 6.50623 163.969 15.6964C166.3 27.1786 154.949 32.5922 153.49 42.59C152.553 48.9642 158.348 51.1689 161.66 55.6221C164.84 59.8788 167.694 66.0346 167.89 71.3173C168.522 87.209 151.137 89.261 142.902 99.3461C135.277 108.689 149.35 114.736 147.237 124.908C144.971 135.888 129.373 141.87 118.392 141.717C110.789 141.586 98.7632 142.721 93.5127 136.783Z" fill="#0086CB"/>
<path d="M104.58 142.022C104.515 142 104.449 142 104.384 141.957C104.035 141.782 103.905 141.411 104.123 141.084C104.275 140.865 119.787 117.486 120.68 88.104C121.268 68.5232 129.394 55.9932 136.061 45.7116C140.091 39.5121 143.599 34.0984 144.122 28.6629C144.165 28.2264 144.579 27.8771 145.037 27.8989C145.516 27.9207 145.821 28.2918 145.778 28.7284C145.189 34.535 141.573 40.1015 137.434 46.4756C130.876 56.5826 122.859 68.8943 122.249 88.0822C121.29 117.814 105.561 141.455 105.408 141.673C105.234 141.957 104.885 142.066 104.58 142.022Z" fill="white"/>
<path d="M121.987 88.1914C121.617 88.1259 121.355 87.7985 121.399 87.4492C121.442 87.0563 121.835 86.7507 122.27 86.7725C128.85 87.1654 137.608 83.3235 140.266 76.9057C140.592 76.1416 140.897 75.2903 141.246 74.3735C142.858 70.0731 144.862 64.6594 149.089 62.7166C151.159 61.7562 153.555 61.7562 156.169 62.673C156.583 62.8258 156.758 63.2405 156.583 63.6335C156.409 64.0264 155.952 64.201 155.538 64.0919C153.294 63.306 151.398 63.306 149.742 64.0701C146.17 65.7291 144.274 70.7716 142.771 74.8101C142.422 75.7269 142.096 76.6001 141.769 77.3859C138.741 84.6551 129.242 88.6716 122.118 88.2351C122.074 88.2132 122.031 88.1914 121.987 88.1914Z" fill="white"/>
<path d="M117.325 87.449C114.275 86.7505 111.966 85.4189 110.419 83.4324C107.979 80.289 107.587 75.5521 109.351 69.7236C109.525 69.1343 109.743 68.4794 109.983 67.7372C111.356 63.5678 113.447 57.1936 111.377 53.6355C110.702 52.4567 109.613 51.6927 108.044 51.2997C107.608 51.1906 107.347 50.754 107.478 50.3611C107.608 49.9463 108.044 49.7062 108.48 49.8154C110.462 50.3174 111.9 51.3434 112.793 52.8714C115.168 56.9754 112.946 63.7206 111.486 68.1301C111.247 68.8505 111.029 69.5053 110.854 70.0729C109.242 75.4866 109.525 79.7869 111.682 82.5811C113.534 84.9605 116.758 86.2702 121.246 86.5104C121.704 86.5322 121.987 86.8814 121.965 87.2744C121.922 87.6673 121.53 87.9729 121.094 87.9511C119.765 87.8856 118.501 87.711 117.325 87.449Z" fill="white"/>
<path d="M113.6 132.767C112.685 132.592 111.835 132.308 111.072 131.85C110.746 131.653 110.659 131.238 110.92 130.933C111.16 130.627 111.639 130.54 111.966 130.758C115.909 133.138 123.904 130.038 127.303 127.637C128.719 126.632 130.005 124.886 131.355 123.031C133.774 119.713 136.301 116.285 140.266 116.154C140.702 116.133 141.028 116.438 141.007 116.809C140.985 117.18 140.636 117.486 140.222 117.508C137.085 117.595 134.819 120.717 132.619 123.707C131.203 125.65 129.852 127.484 128.218 128.641C125.146 130.802 118.48 133.662 113.6 132.767Z" fill="white"/>
<path d="M107.151 131.326C106.214 131.151 105.321 130.824 104.428 130.365C99.4825 127.724 96.5414 120.957 95.7789 117.028C95.3649 114.91 95.9967 112.116 96.6721 109.147C97.7396 104.389 98.8725 99.4333 95.7789 97.1849C95.4521 96.9447 95.4085 96.4863 95.6917 96.1807C95.9749 95.8751 96.476 95.8314 96.8028 96.0716C100.594 98.8657 99.33 104.476 98.1971 109.387C97.5435 112.225 96.9335 114.91 97.3039 116.766C98.001 120.324 100.768 126.829 105.256 129.23C106.999 130.169 108.872 130.387 110.768 129.885C111.16 129.776 111.574 129.972 111.683 130.322C111.792 130.671 111.552 131.042 111.138 131.129C109.787 131.5 108.458 131.566 107.151 131.326Z" fill="white"/>
<path d="M154.209 169.025C139.678 165.424 128.175 162.171 127.848 146.76C127.695 138.77 131.247 133.269 139.634 128.838C146.431 125.258 149.917 124.035 151.486 116.963C153.991 105.655 148.545 94.5003 155.647 83.5857C163.577 71.3831 181.464 76.9496 189.72 65.8821C197.128 55.9498 201.202 43.0924 216.844 43.2888C230.025 43.4417 235.406 57.2377 229.763 66.799C226.582 72.1908 221.027 75.9673 218.783 81.752C216.626 87.253 219.001 91.7498 221.114 96.7705C225.776 107.882 226.931 119.32 214.208 126.655C206.605 131.043 200.744 134.884 203.489 143.114C206.365 151.758 207.65 156.692 197.193 163.197C189.372 168.065 182.226 167.672 173.25 168.043C164.819 168.392 153.577 170.706 145.625 167.061L154.209 169.025Z" fill="#5CB5FE"/>
<path d="M158.915 161.036C157.695 159.639 156.867 158.198 156.453 156.692C154.689 150.23 160.832 143.747 166.41 137.875C169.22 134.928 171.9 132.09 173.141 129.689C176.562 123.118 177.586 117.268 176.867 108.078C175.995 97.1851 178.915 92.732 187.803 85.5283C195.276 79.4379 202.683 72.7582 204.753 66.1221C204.906 65.5982 205.581 65.3362 206.213 65.489C206.866 65.6637 207.258 66.2094 207.106 66.7333C204.884 73.7842 197.215 80.704 189.503 86.9254C180.919 93.8671 178.239 97.8837 179.045 108.253C179.656 116.089 179.198 122.856 175.124 130.628C173.773 133.203 171.028 136.085 168.152 139.097C162.771 144.729 156.824 150.972 158.392 156.757C159.002 158.984 160.68 161.036 163.512 163.022C163.97 163.35 164.144 163.874 163.839 164.179C163.534 164.485 162.924 164.485 162.444 164.135C161.05 163.131 159.852 162.105 158.915 161.036Z" fill="white"/>
<path d="M177.303 118.36C177.15 118.185 177.063 118.01 177.041 117.792C177.019 117.312 177.499 116.963 178.087 117.028C183.337 117.596 187.215 113.492 191.42 109.06C195.124 105.131 199.023 101.027 204.339 99.8922C204.949 99.7612 205.646 100.067 205.864 100.569C206.104 101.071 205.821 101.573 205.211 101.704C200.548 102.686 196.823 106.572 193.294 110.283C188.958 114.845 184.557 119.473 178.174 118.774C177.826 118.753 177.521 118.578 177.303 118.36Z" fill="white"/>
<path d="M173.097 131.763C173.01 131.676 172.945 131.566 172.901 131.457C172.378 130.148 172.182 129.034 171.965 127.965C171.638 126.218 171.333 124.712 169.808 122.813C169.002 121.809 168.087 120.914 167.215 120.062C165.385 118.251 163.468 116.417 162.618 113.448C161.398 109.213 161.464 103.952 162.858 97.7529C163.054 96.8797 163.49 95.6791 163.969 94.3912C164.644 92.5357 165.93 89.0649 165.516 88.279C165.254 87.8206 165.429 87.2749 165.952 87.1221C166.453 86.9474 167.084 87.1439 167.368 87.5805C168.239 88.9121 167.433 91.3351 166.017 95.1334C165.559 96.3777 165.124 97.5564 164.949 98.3205C164.013 102.446 163.207 108.34 164.644 113.317C165.363 115.806 166.91 117.312 168.718 119.058C169.655 119.953 170.614 120.892 171.507 122.027C173.359 124.319 173.707 126.196 174.056 128.008C174.252 129.012 174.448 130.06 174.906 131.217C175.102 131.697 174.797 132.134 174.23 132.178C173.838 132.265 173.381 132.069 173.097 131.763Z" fill="white"/>
<path d="M66.8465 166.952C50.7684 164.027 35.6924 165.271 29.1784 147.611C24.0151 133.64 36.041 120.499 23.9497 110.894C16.6732 105.109 5.19189 101.66 2.66471 91.7935C0.0285925 81.5119 13.1438 74.985 10.7909 65.1181C8.83017 56.954 -2.45502 56.4301 0.4861 45.7992C3.10043 36.369 11.3791 34.0114 17.9368 35.8887C26.7165 38.3991 27.4573 46.4541 33.2959 52.0642C37.1956 55.797 42.7075 52.0424 48.4155 51.3657C54.1016 50.689 61.4 51.1911 66.2147 53.7014C81.8571 61.8656 69.3301 79.1762 72.1623 93.2561C74.9074 106.878 94.0355 98.6479 103.926 108.864C115.473 120.805 106.759 141.455 95.3863 151.213C87.8265 157.696 77.7178 168.938 66.8465 166.952Z" fill="#5CB5FE"/>
<path d="M82.3799 163.393C82.2928 163.437 82.2056 163.481 82.1185 163.502C81.5956 163.633 81.051 163.306 80.9203 162.826C80.8113 162.455 70.354 127.397 44.8643 104.323C30.5073 91.3349 27.1086 77.9099 24.429 67.41C22.8821 61.2978 21.5532 56.0806 18.5031 53.2646C18.2635 53.0464 18.2853 52.5879 18.5685 52.2387C18.8517 51.8894 19.2874 51.8021 19.5271 52.0204C22.8168 55.0328 24.1893 60.4028 25.8015 66.7115C28.4594 77.0585 31.8362 90.3089 45.9972 103.035C71.988 126.393 82.6849 161.996 82.7939 162.367C82.9028 162.782 82.7285 163.197 82.3799 163.393Z" fill="white"/>
<path d="M45.8665 103.298C45.5397 103.538 45.104 103.538 44.8426 103.254C44.5594 102.948 44.6029 102.424 44.9297 102.097C50.093 97.0108 53.4481 87.1876 50.0712 81.0099C49.6791 80.2896 49.2216 79.5037 48.7205 78.696C46.433 74.8541 43.6444 70.1826 45.104 65.6203C45.823 63.3937 47.5005 61.3636 50.093 59.5954C50.507 59.3116 50.9645 59.3771 51.1605 59.7482C51.3348 60.0975 51.1605 60.5777 50.7684 60.8833C48.5462 62.3896 47.1955 63.9831 46.6073 65.7949C45.3655 69.6805 48.0016 74.09 50.1584 77.67C50.6595 78.4996 51.1388 79.2854 51.5309 80.0276C55.3871 87.0785 51.5963 97.6656 45.9537 103.21C45.9319 103.232 45.9101 103.276 45.8665 103.298Z" fill="white"/>
<path d="M41.9016 106.528C39.2001 108.471 36.5422 109.344 33.9933 109.192C30.05 108.951 26.4553 106.135 23.5795 101.115C23.2963 100.634 22.9913 100.045 22.6427 99.412C20.7473 95.8757 17.9151 90.6148 14.4512 90.1346C13.3183 89.9818 12.229 90.3529 11.0743 91.2479C10.7475 91.5098 10.3554 91.4443 10.1811 91.1169C10.0068 90.7895 10.1157 90.3311 10.4425 90.0909C11.8804 88.934 13.3619 88.4537 14.8433 88.6502C18.8519 89.1959 21.8584 94.7624 23.8845 98.4952C24.2113 99.1064 24.5163 99.674 24.7995 100.154C27.4792 104.782 30.7254 107.38 34.2329 107.598C37.283 107.773 40.5727 106.135 43.9931 102.73C44.3417 102.381 44.821 102.381 45.1042 102.665C45.3874 102.97 45.3438 103.494 45.017 103.822C44.0149 104.869 42.9474 105.764 41.9016 106.528Z" fill="white"/>
<path d="M80.6372 146.454C79.6132 147.065 78.5239 147.502 77.3475 147.698C76.8246 147.786 76.3453 147.458 76.2582 146.956C76.171 146.454 76.4978 145.996 77.0207 145.908C83.1861 144.839 87.2383 134.95 87.7612 129.711C87.9791 127.55 87.2384 124.865 86.4541 122.027C85.0815 117.028 83.6654 111.942 87.173 108.231C87.5434 107.816 88.1752 107.773 88.5673 108.078C88.9595 108.384 88.9812 108.973 88.6109 109.344C85.8223 112.269 87.1294 116.919 88.393 121.46C89.2209 124.45 90.027 127.288 89.7655 129.798C89.2862 134.535 86.1708 143.114 80.6372 146.454Z" fill="white"/>
<path d="M73.2951 150.492C72.293 151.104 71.1601 151.54 69.9183 151.802C63.0557 153.287 54.363 149.357 50.2673 146.454C48.1322 144.926 46.2368 142.045 44.2543 139.032C41.1825 134.339 38.067 129.58 34.1238 130.191C33.7098 130.257 33.3395 129.951 33.2959 129.515C33.2523 129.078 33.5791 128.663 33.9931 128.598C38.8296 127.834 42.3807 133.226 45.5832 138.072C47.4786 140.953 49.3087 143.704 51.2041 145.057C54.9295 147.676 63.2518 151.431 69.4826 150.056C71.9662 149.51 73.8398 148.179 75.0162 146.105C75.2777 145.668 75.8441 145.515 76.3016 145.756C76.7591 145.996 76.9334 146.541 76.672 147C75.8441 148.462 74.6895 149.641 73.2951 150.492Z" fill="white"/>
<path d="M188.5 179.001H45.2133C43.2961 179.001 41.7275 177.429 41.7275 175.508V81.5332C41.7275 79.6122 43.2961 78.0405 45.2133 78.0405H188.5C190.418 78.0405 191.986 79.6122 191.986 81.5332V175.508C191.986 177.429 190.418 179.001 188.5 179.001Z" fill="#000B3C"/>
<path d="M178.174 84.7422H48.6338V171.273H178.174V84.7422Z" fill="white"/>
<path d="M187.302 128.51C187.302 130.016 186.082 131.239 184.579 131.239C183.075 131.239 181.855 130.016 181.855 128.51C181.855 127.004 183.075 125.781 184.579 125.781C186.082 125.781 187.302 127.026 187.302 128.51Z" fill="white"/>
<path d="M152.314 99.8042H77.1733V159.595H152.314V99.8042Z" fill="#B6D8EF"/>
<path d="M148.414 103.712V155.687H81.0731V103.712H148.414ZM152.314 99.8042H77.1733V159.595H152.314V99.8042Z" fill="#0086CB"/>
<path d="M143.033 111.308H86.4541V115.216H143.033V111.308Z" fill="#5CB5FE"/>
<path d="M138.175 121.808H91.291V123.118H138.175V121.808Z" fill="#5CB5FE"/>
<path d="M138.175 129.688H91.291V130.998H138.175V129.688Z" fill="#5CB5FE"/>
<path d="M138.175 137.591H91.291V138.901H138.175V137.591Z" fill="#5CB5FE"/>
<path d="M128.001 145.471H91.291V146.78H128.001V145.471Z" fill="#5CB5FE"/>
<path opacity="0.3" d="M132.989 157.892L136.954 155.6L140.919 157.892V148.09H132.989V157.892Z" fill="black"/>
<path d="M132.989 156.582L136.954 154.29L140.919 156.582V146.781H132.989V156.582Z" fill="#FF5776"/>
<path opacity="0.3" d="M136.954 142.284L137.695 143.31L138.741 142.568L139.133 143.769L140.353 143.376V144.664H141.638L141.246 145.886L142.466 146.279L141.704 147.327L142.749 148.091L141.704 148.833L142.466 149.881L141.246 150.274L141.638 151.496H140.353V152.784L139.133 152.391L138.741 153.592L137.695 152.85L136.954 153.876L136.192 152.85L135.168 153.592L134.754 152.391L133.534 152.784V151.496H132.27L132.641 150.274L131.442 149.881L132.183 148.833L131.159 148.091L132.183 147.327L131.442 146.279L132.641 145.886L132.27 144.664H133.534V143.376L134.754 143.769L135.168 142.568L136.192 143.31L136.954 142.284Z" fill="black"/>
<path d="M136.954 140.974L137.695 142L138.741 141.258L139.133 142.459L140.353 142.087V143.354L141.638 143.375L141.246 144.576L142.466 144.991L141.704 146.017L142.749 146.781L141.704 147.545L142.466 148.571L141.246 148.964L141.638 150.186L140.353 150.208V151.474L139.133 151.081L138.741 152.304L137.695 151.561L136.954 152.587L136.192 151.561L135.168 152.304L134.754 151.081L133.534 151.474V150.208L132.27 150.186L132.641 148.964L131.442 148.571L132.183 147.545L131.159 146.781L132.183 146.017L131.442 144.991L132.641 144.576L132.27 143.375L133.534 143.354V142.087L134.754 142.459L135.168 141.258L136.192 142L136.954 140.974Z" fill="#FF5776"/>
<path d="M114.558 77.4948C114.558 77.4948 96.4319 77.3857 90.0704 73.1508C83.7088 68.8941 82.5978 51.9982 91.8351 45.0784C101.072 38.1585 102.99 36.041 103.403 31.4787C103.817 26.9164 103.708 16.5912 115.691 16.5475C127.434 16.5039 126.431 26.1524 127.325 32.2864C127.956 36.565 133.817 42.8736 138.937 46.8029C145.516 51.8236 152.901 81.7297 114.558 77.4948Z" fill="#000B3C"/>
<path d="M112.467 28.4229L116.41 28.5538L120.353 28.6848C120.353 28.6848 121.159 39.4903 123.164 40.8219C123.164 40.8219 125.299 53.6138 115.626 53.3082C103.926 52.9371 108.894 40.3635 108.894 40.3635C110.985 39.141 112.467 28.4229 112.467 28.4229Z" fill="#E45940"/>
<path d="M99.2863 77.9753H131.094L133.774 67.65C134.188 57.172 134.34 46.4975 134.34 46.4975C129.787 42.8083 122.488 40.167 122.488 40.167C118.654 43.0703 112.815 43.3322 109.155 40.167C109.155 40.167 101.922 43.1358 97.1731 46.4975C97.1731 46.4975 96.2145 50.9288 96.6938 57.9142C97.1513 64.6376 98.0445 71.361 99.2863 77.9753Z" fill="#DE0C4B"/>
<path d="M145.647 77.9752C143.207 65.7072 140.963 57.9141 138.959 53.3082C136.344 47.2833 134.34 46.4974 134.34 46.4974C132.009 46.2791 130.266 65.8163 126.279 77.9752H145.647Z" fill="#DE0C4B"/>
<path d="M130.963 60.2499C130.331 61.9744 129.22 63.3715 128.131 64.9214C127.15 66.3184 124.449 74.0896 113.861 73.3474C109.482 73.0418 105.43 68.7196 103.643 64.3101C102.902 62.4983 102.554 60.752 102.162 58.8528C101.878 57.4776 101.791 55.7094 101.094 54.5088C99.7652 54.8362 99.6344 56.8227 99.1551 57.9796C98.8719 58.6782 96.9547 61.3414 96.8022 59.3549C97.2815 65.6199 98.1094 71.8412 99.2859 77.9753H133.468C132.815 70.7934 130.919 62.4328 130.963 60.2499Z" fill="#C10E49"/>
<path d="M125.168 30.3434C124.035 29.121 122.793 31.0856 122.793 31.0856C122.793 31.0856 123.272 28.9027 123.381 26.436C120.767 24.9952 118.131 23.2925 115.647 22.5285V22.4849H115.625H115.604V22.5067C113.12 23.2707 110.484 24.9516 107.87 26.4141C107.979 28.8808 108.458 31.0638 108.458 31.0638C108.458 31.0638 107.216 29.0991 106.083 30.3216C104.95 31.544 107.739 34.8184 108.392 35.2113C108.392 35.2113 110.702 40.8433 113.599 42.6988C114.362 43.179 116.649 43.31 117.782 42.5896C120.68 40.7123 122.858 35.2113 122.858 35.2113C123.512 34.8184 126.301 31.5658 125.168 30.3434Z" fill="#F88667"/>
<path d="M123.359 24.4063C123.359 24.4063 119.394 31.4354 109.547 30.7805C109.547 30.7805 110.026 31.61 109.438 33.1162C109.438 33.1162 108.741 30.3439 107.216 31.2171C106.41 31.6755 106.41 32.8106 107.238 34.033C107.608 34.5788 104.819 33.5746 104.819 33.5746C104.819 33.5746 103.665 22.8565 110.745 20.4334C117.847 17.9885 123.359 24.4063 123.359 24.4063Z" fill="#000B3C"/>
<path d="M120.092 20.7173C120.004 21.2412 119.939 21.7433 119.939 22.2454C119.961 23.3368 118.392 24.1227 118.349 25.1923C118.566 25.4324 118.784 25.6944 119.002 25.9563C120.331 27.6154 120.898 28.5759 121.377 30.6278C121.508 31.1954 121.181 31.6101 122.074 33.1818C122.074 33.1818 122.749 30.3877 124.449 30.8024C124.776 30.8898 125.451 31.3918 124.863 32.7671C124.645 33.2692 126.627 30.6933 126.627 30.6933C126.627 30.6933 126.54 20.499 120.092 20.7173Z" fill="#110239"/>
<path d="M106.323 125.148C106.693 125.999 108.654 127.331 107.957 128.488C107.608 129.077 105.843 127.833 105.451 127.331C104.907 126.611 101.094 120.695 100.506 118.992C100.048 117.661 99.5907 116.351 99.0679 115.128C100.44 114.299 101.726 113.251 102.88 112.072C104.819 112.967 106.889 114.212 108.806 115.063C109.83 115.521 110.963 115.827 112.009 116.22C112.662 116.46 114.078 116.831 114.122 117.704C114.187 118.665 112.771 118.381 112.227 118.272C111.421 118.119 109.939 117.333 109.373 118.272C108.545 119.603 111.05 121.175 111.9 122.092C112.684 122.943 115.538 125.563 113.447 125.759C113.011 125.803 110.026 123.249 109.569 122.9C109.656 123.031 111.573 124.864 111.66 124.995C112.161 125.65 113.577 127.047 113.163 127.724C112.248 129.186 109.111 125.323 108.632 124.821L109.83 126.349C110.854 127.506 111.486 128.488 110.636 128.837C109.525 129.274 107.281 126.108 106.323 125.148Z" fill="#F88667"/>
<path d="M105.909 113.316L99.4165 117.66C99.4165 117.66 78.9376 91.0941 81.1598 81.0527C83.7959 69.1775 90.6585 55.9053 94.4493 49.7277C95.909 47.3483 97.1726 46.4751 97.1726 46.4751C101.072 50.2297 103.316 55.4906 102.815 60.2057C102.597 62.3231 101.573 63.6766 100.44 65.8377C96.9765 72.4083 92.75 83.8031 92.9025 84.9601C93.1204 86.8156 105.909 113.316 105.909 113.316Z" fill="#DE0C4B"/>
</svg>
