<svg viewBox="0 0 190 191" fill="none" xmlns="http://www.w3.org/2000/svg">
<path d="M82.3963 182.683C127.903 182.683 164.793 145.718 164.793 100.119C164.793 54.5196 127.903 17.5542 82.3963 17.5542C36.8901 17.5542 0 54.5196 0 100.119C0 145.718 36.8901 182.683 82.3963 182.683Z" fill="#DE0C4B"/>
<path d="M144.382 107.764C148.597 73.4594 124.261 42.2261 90.0265 38.0024C55.7918 33.7787 24.6221 58.1641 20.407 92.4686C16.1919 126.773 40.5276 158.007 74.7623 162.23C108.997 166.454 140.167 142.069 144.382 107.764Z" fill="white"/>
<path d="M92.6469 143.607C116.621 137.935 131.467 113.861 125.806 89.8377C120.145 65.8143 96.1209 50.9381 72.1464 56.6107C48.172 62.2833 33.326 86.3567 38.9871 110.38C44.6481 134.403 68.6724 149.28 92.6469 143.607Z" fill="#DE0C4B"/>
<path d="M113.091 100.119C113.091 117.111 99.3544 130.876 82.3962 130.876C65.438 130.876 51.7017 117.111 51.7017 100.119C51.7017 83.1257 65.438 69.3613 82.3962 69.3613C99.3544 69.3613 113.091 83.1257 113.091 100.119Z" fill="white"/>
<path d="M96.5681 100.119C96.5681 107.95 90.2332 114.319 82.3963 114.319C74.5812 114.319 68.2246 107.972 68.2246 100.119C68.2246 92.2875 74.5594 85.918 82.3963 85.918C90.2115 85.918 96.5681 92.2657 96.5681 100.119Z" fill="#DE0C4B"/>
<path d="M119.078 63.2535C119.078 63.2535 117.88 66.1547 117.946 66.0675C118.011 65.9802 116.117 65.1731 116.008 65.1949C115.899 65.2168 114.332 65.1513 113.701 65.0204C113.069 64.8895 112.569 64.4533 112.373 64.3224C112.133 64.1915 111.763 63.7334 112.112 63.6462C112.416 63.5589 112.765 63.9734 112.961 64.0606C113.156 64.1479 113.853 64.1479 113.853 64.1479C113.853 64.1479 113.592 64.0388 113.091 63.8207C112.482 63.5807 111.567 63.2099 111.393 63.0354C111.219 62.8609 111.263 62.49 111.741 62.5773C112.307 62.6864 112.83 62.9481 112.939 62.97C113.026 62.9918 113.94 63.319 113.94 63.319C113.94 63.319 113.156 63.0136 112.895 62.9045C112.59 62.7736 111.741 62.4246 111.197 62.1847C110.675 61.9447 110.784 61.3557 111.263 61.3994C111.611 61.4212 112.808 62.0756 113.004 62.141C113.2 62.2065 114.027 62.5773 114.027 62.5773C114.027 62.5773 113.048 62.1192 112.873 62.0101C112.699 61.9011 111.611 61.4866 111.48 61.1594C111.415 61.0067 111.48 60.6795 111.872 60.745C112.307 60.8104 112.961 61.0722 113.244 61.2249C113.483 61.3557 115.05 62.0974 115.399 62.1192C115.703 62.141 116.052 62.0974 116.052 61.7048L116.596 60.7231C116.596 60.7231 116.966 60.8977 117.14 61.792C117.162 62.2719 117.967 62.8827 119.078 63.2535Z" fill="#F88667"/>
<path d="M151.797 74.8367C151.797 72.4154 149.903 70.4085 147.508 70.0595C143.59 69.4705 136.297 68.3362 134.098 67.8345C131.029 67.1365 118.555 62.9482 118.555 62.9482L117.184 66.2639C117.184 66.2639 130.768 73.1134 133.227 73.6369C135.666 74.1822 148.226 78.6322 150.665 77.2362C151.492 76.7344 151.797 75.8401 151.797 74.8367Z" fill="#5CB5FE"/>
<path d="M161.723 107.623L160.939 105.245H125.63L126.392 107.623H161.723Z" fill="#000B3C"/>
<path d="M165.925 120.231L165.119 117.832H129.636L130.398 120.231H165.925Z" fill="#000B3C"/>
<path d="M156.412 95.0144L155.628 92.6367H120.318L121.08 95.0144H156.412Z" fill="#000B3C"/>
<path d="M170.148 132.97L169.343 130.549H133.663L134.447 132.97H170.148Z" fill="#000B3C"/>
<path d="M174.437 145.862L173.631 143.419H137.756L138.54 145.862H174.437Z" fill="#000B3C"/>
<path d="M178.769 158.885L177.963 156.398H141.892L142.675 158.885H178.769Z" fill="#000B3C"/>
<path d="M183.166 172.039L182.317 169.552H146.071L146.855 172.039H183.166Z" fill="#000B3C"/>
<path d="M187.215 190.994H187.389C188.5 190.994 189.283 189.904 188.935 188.835L155.781 89.321C155.563 88.6448 154.932 88.2085 154.235 88.2085H151.949L185.67 189.882C185.887 190.536 186.497 190.994 187.215 190.994Z" fill="#000B3C"/>
<path d="M151.296 190.994H151.47C152.58 190.994 153.364 189.925 153.016 188.857L121.342 89.3428C121.124 88.6666 120.493 88.2085 119.796 88.2085H119.752C118.642 88.2085 117.859 89.2774 118.185 90.3462L149.729 189.86C149.968 190.536 150.599 190.994 151.296 190.994Z" fill="#000B3C"/>
<path d="M151.23 59.2617C151.165 59.349 151.1 59.4144 151.013 59.5017C150.316 60.1997 149.598 60.9196 148.771 61.4649C148.27 61.7921 147.486 62.0102 147.073 62.3593C146.898 62.4901 146.724 62.621 146.528 62.7301C146.768 64.1262 147.399 67.8127 147.29 69.2524C147.29 69.2524 151.753 68.9252 153.386 67.1146C153.407 67.1146 151.535 62.1411 151.23 59.2617Z" fill="#F88667"/>
<path d="M148.814 66.7441C149.119 65.4789 149.838 64.2137 150.861 63.363C151.209 63.0794 151.557 62.7959 151.927 62.5559C151.601 61.3998 151.318 60.2 151.209 59.2402C151.144 59.3275 151.078 59.3929 150.991 59.4802C150.295 60.1782 149.576 60.8981 148.749 61.4434C148.248 61.7706 147.465 61.9887 147.051 62.3378C146.877 62.4686 146.703 62.5995 146.507 62.7086C146.746 64.1047 147.378 67.7912 147.269 69.2309C147.269 69.2309 148.031 69.1654 149.054 68.9909C148.749 68.3147 148.64 67.5294 148.814 66.7441Z" fill="#E45940"/>
<path d="M148.749 139.187C148.749 139.187 148.618 143.659 147.921 144.27C147.225 144.88 138.365 145.142 137.603 144.335C136.841 143.528 137.298 142.154 139.192 141.608C141.238 141.041 142.24 141.586 143.502 141.063C144.787 140.539 144.438 138.511 144.438 138.511L148.749 139.187Z" fill="#323B69"/>
<path d="M170.736 139.034C170.736 139.034 171.411 143.375 170.736 144.029C170.061 144.662 161.027 145.382 160.243 144.596C159.459 143.811 159.851 142.415 161.723 141.826C163.748 141.172 164.728 141.586 166.012 141.106C167.035 140.735 166.338 138.663 166.338 138.663L170.736 139.034Z" fill="#323B69"/>
<path d="M164.184 113.992C164.38 101.645 162.965 93.138 162.333 89.168C160.853 89.2334 159.373 89.3643 157.914 90.0187C155.215 91.2621 152.494 92.44 149.772 93.6179C151.971 98.1988 156.804 113.141 157.392 116.26C158.11 120.143 166.23 139.994 166.23 139.994L171.128 139.383C171.041 136.198 164.162 115.083 164.184 113.992Z" fill="#FF5776"/>
<path d="M154.105 91.786C152.69 92.484 151.209 93.0294 149.729 93.5747C151.906 98.0683 155.846 110.48 156.739 113.796C157.435 111.724 160.766 106.685 162.029 101.166C162.878 97.4793 163.03 93.6619 162.442 89.9318C162.442 89.91 162.442 89.91 162.442 89.8882C159.678 90.0627 157.022 90.3681 154.105 91.786Z" fill="#FF3964"/>
<path d="M157.784 91.1094C155.868 91.7638 152.385 92.68 149.772 93.618C147.944 98.2425 142.523 109.193 142.262 114.145C141.957 119.598 143.829 140.277 143.829 140.277H149.446C149.446 140.277 149.968 116.959 150.752 115.475C153.343 110.545 156.216 106.619 157.849 103.543C160.592 98.3952 161.506 95.0795 161.985 92.6582C162.203 91.5893 163.117 88.0119 161.332 86.8994C159.808 87.3575 159.373 90.5859 157.784 91.1094Z" fill="#FF5776"/>
<path d="M147.704 94.7527C147.704 94.7527 152.428 96.6723 157.065 96.2142C160.505 95.887 162.29 95.8216 164.293 94.7309C164.293 94.7309 162.137 77.9344 159.656 72.6337C157.174 67.333 153.103 66.3296 153.103 66.3296C153.103 66.3296 149.881 68.2056 147.269 68.1619C147.269 68.1619 147.334 78.4798 147.53 82.6025C147.748 86.7253 147.704 94.7527 147.704 94.7527Z" fill="#5CB5FE"/>
<path d="M147.487 81.0977C147.465 80.6396 147.465 80.1597 147.443 79.658C147.443 79.5925 147.443 79.5271 147.443 79.4834C147.421 79.0035 147.421 78.5018 147.4 77.9783C147.4 77.8911 147.4 77.8038 147.4 77.7165C147.378 77.1494 147.378 76.5604 147.378 75.9715V75.9496C147.596 75.9496 147.813 75.9496 148.009 75.906C149.642 75.5788 151.079 74.6626 152.494 73.8337C152.733 73.7028 152.994 73.572 153.234 73.4629C153.517 75.6661 152.537 78.371 152.102 80.116C150.926 84.9805 150.273 91.1101 151.296 95.8C149.207 95.3419 147.704 94.7748 147.704 94.7748C147.704 94.7748 147.748 86.7474 147.53 82.6246C147.509 82.2538 147.487 81.8393 147.487 81.3812C147.487 81.2722 147.487 81.1849 147.487 81.0977Z" fill="#00A7CC"/>
<path d="M153.538 55.0739C153.538 55.0739 151.623 51.082 149.097 51.2347C146.55 51.3874 144.918 51.8019 144.591 52.8053C144.243 53.7869 143.677 56.4918 143.024 57.4952C142.371 58.4987 140.978 59.8075 140.999 60.2656C141.021 60.7237 142.48 60.8764 142.567 61.0509C142.654 61.2254 143.437 64.541 143.96 64.8683C144.482 65.2173 149.38 63.2977 150.121 61.8362C150.882 60.4183 153.756 57.6698 153.538 55.0739Z" fill="#F88667"/>
<path d="M148.357 55.4663C148.118 55.4881 147.791 55.6408 147.596 55.6844C147.225 55.7498 146.834 55.7935 146.463 55.8371C145.702 55.968 144.94 56.0771 144.199 55.8371C143.089 55.4663 143.459 54.3756 142.937 53.6121C142.697 53.2413 142.175 53.2413 141.892 52.8268C141.631 52.4342 141.565 51.867 141.565 51.4089C141.587 50.2528 142.719 50.1437 143.612 49.9256C144.657 49.6638 144.722 49.0967 145.201 48.2896C146.442 46.3482 148.183 49.0531 149.533 48.8786C150.23 48.7913 150.97 48.3332 151.645 48.7259C152.232 49.0531 152.581 49.642 152.972 50.1656C153.386 50.7109 153.778 50.4928 154.387 50.7109C154.823 50.8854 155.302 51.2999 155.628 51.6489C156.325 52.456 156.782 53.6557 156.564 54.7246C156.39 55.619 155.672 56.0989 155.628 57.0587C155.607 57.8003 155.65 58.7383 155.28 59.4145C154.758 60.418 153.56 60.5488 152.777 61.2251C152.036 61.8795 150.97 62.3376 149.947 62.0976C149.838 61.3996 149.903 60.1998 150.534 59.8508C150.774 59.7199 151.079 59.6763 151.47 59.3709C152.189 58.8038 151.753 57.3422 150.425 57.5168C149.62 57.6258 149.272 59.829 148.379 59.4582C147.704 59.1964 148.51 58.0839 148.706 57.6913C148.945 57.1895 149.076 55.9244 148.597 55.5099C148.553 55.4663 148.466 55.4445 148.357 55.4663Z" fill="#110239"/>
<path d="M127.067 94.8399C126.806 94.8181 126.501 94.7526 126.414 94.7963C125.978 94.949 125.26 94.7308 124.977 94.6218C124.302 94.36 123.257 93.9019 122.561 94.0328C122.147 94.0982 119.709 94.6654 120.318 95.6906C120.406 95.8215 120.689 96.0396 120.776 95.996C121.037 95.9088 121.733 95.647 121.733 95.647C121.733 95.647 121.189 95.8433 121.08 95.9306C120.993 95.996 120.797 96.0833 120.732 96.1705C120.601 96.3887 120.797 96.8249 121.015 96.8904C121.233 96.9558 121.385 96.7595 121.559 96.6504C121.559 96.6504 121.559 96.6504 121.538 96.6504C121.363 96.7813 120.993 96.8686 121.233 97.3921C121.494 97.9593 121.668 97.6102 121.908 97.5448C121.995 97.523 122.082 97.4793 122.169 97.4357C122.082 97.4793 121.733 97.6539 121.668 97.7193C121.45 97.9156 121.951 98.6137 122.408 98.5482C122.691 98.5046 123.344 98.1119 123.497 98.1556C123.671 98.1992 123.889 98.1992 124.063 98.221C124.629 98.2646 125.195 98.1119 125.717 97.8938C125.957 97.7847 126.392 97.6102 126.632 97.4793C127.198 97.174 127.829 96.6941 127.981 96.5632C127.589 95.8433 127.002 95.6688 127.067 94.8399Z" fill="#F88667"/>
<path d="M127.916 97.9157L125.935 94.011C125.935 94.011 135.709 87.7287 139.301 84.1076C142.871 80.4866 146.746 73.1354 149.468 72.6773C152.189 72.2192 154.932 73.7244 153.364 77.5199C151.775 81.3155 143.786 86.3763 142.153 88.0341C140.542 89.7137 129.527 97.0213 127.916 97.9157Z" fill="#5CB5FE"/>
<path d="M155.084 5.25134C153.342 4.50968 147.769 1.58665 143.285 12.1881C139.018 22.2878 134.512 35.9431 134.512 35.9431C134.512 35.9431 145.614 26.7814 153.451 19.1466C161.68 11.1628 156.716 6.29839 155.084 5.25134Z" fill="#DE0C4B"/>
<path d="M145.549 13.3442L134.882 24.3383C131.66 27.654 128.765 31.2532 126.196 35.0924L82.6577 100.119L132.008 46.5882C137.581 40.5458 142.153 33.6527 145.527 26.1706L149.685 16.9871C148.074 16.0928 146.659 14.8494 145.549 13.3442Z" fill="#000B3C"/>
<path d="M132.705 36.794C132.705 36.794 125.521 16.7473 132.248 3.7682C138.953 -9.2109 147.726 15.5039 147.726 15.5039L132.705 36.794Z" fill="#DE0C4B"/>
<path d="M132.662 36.685C132.662 36.685 153.908 36.6414 163.835 25.9091C173.74 15.1768 147.574 15.3077 147.574 15.3077L132.662 36.685Z" fill="#DE0C4B"/>
<path d="M116.792 63.2977C116.639 63.2323 116.465 63.6685 116.291 63.6249L116.313 63.145C116.247 62.7087 114.615 62.5997 114.245 62.4034C113.156 61.8362 113.592 61.1382 114.092 61.2909C114.441 61.3999 115.202 61.6181 115.507 61.7489C115.812 61.8798 116.334 61.8144 116.639 61.8798C116.944 61.9453 117.793 62.6869 118.054 62.8614C118.62 63.2323 117.379 63.5377 116.792 63.2977Z" fill="#F88667"/>
</svg>
