<svg width="43" height="43" viewBox="0 0 33 32" fill="none" xmlns="http://www.w3.org/2000/svg"><path fill-rule="evenodd" clip-rule="evenodd" d="M16.7254 31.8272C25.5077 31.8272 32.6273 24.7076 32.6273 15.9252C32.6273 7.14285 25.5077 0.0233154 16.7254 0.0233154C7.94296 0.0233154 0.823425 7.14285 0.823425 15.9252C0.823425 24.7076 7.94296 31.8272 16.7254 31.8272ZM8.27343 20.8C9.0401 21.6667 10.0401 22.1 11.2734 22.1C12.3068 22.1 13.1734 21.7667 13.8734 21.1C14.6068 20.4333 14.9734 19.5667 14.9734 18.5C14.9734 17.5 14.6401 16.65 13.9734 15.95C13.3401 15.2167 12.4401 14.7167 11.2734 14.45L10.2234 14.2C10.4568 12.9667 10.8401 11.9333 11.3734 11.1C11.9068 10.2667 12.5234 9.58334 13.2234 9.05001L12.9234 8.45001C11.2901 9.25001 9.92343 10.4667 8.82343 12.1C7.72343 13.7 7.17343 15.4333 7.17343 17.3C7.17343 18.7333 7.5401 19.9 8.27343 20.8ZM18.8234 20.8C19.5901 21.6667 20.5901 22.1 21.8234 22.1C22.8568 22.1 23.7234 21.7667 24.4234 21.1C25.1568 20.4333 25.5234 19.5667 25.5234 18.5C25.5234 17.5 25.1901 16.65 24.5234 15.95C23.8901 15.2167 22.9901 14.7167 21.8234 14.45L20.7734 14.2C21.0068 12.9667 21.3901 11.9333 21.9234 11.1C22.4568 10.2667 23.0734 9.58334 23.7734 9.05001L23.4734 8.45001C21.8401 9.25001 20.4734 10.4667 19.3734 12.1C18.2734 13.7 17.7234 15.4333 17.7234 17.3C17.7234 18.7333 18.0901 19.9 18.8234 20.8Z" fill="white"></path></svg>