<svg width="40" height="28" viewBox="0 0 40 28" fill="none" xmlns="http://www.w3.org/2000/svg">
<path fill-rule="evenodd" clip-rule="evenodd" d="M0 2.00037C0 1.17194 0.671574 0.500366 1.5 0.500366L38.5 0.50037C39.3284 0.50037 40 1.17194 40 2.00037V2.00037C40 2.8288 39.3284 3.50037 38.5 3.50037L1.5 3.50037C0.671573 3.50037 0 2.82879 0 2.00037V2.00037ZM0 14.0004C0 13.1719 0.671574 12.5004 1.5 12.5004L38.5 12.5004C39.3284 12.5004 40 13.1719 40 14.0004V14.0004C40 14.8288 39.3284 15.5004 38.5 15.5004L1.5 15.5004C0.671573 15.5004 0 14.8288 0 14.0004V14.0004ZM0 26.0004C0 25.1719 0.671574 24.5004 1.5 24.5004L38.5 24.5004C39.3284 24.5004 40 25.172 40 26.0004V26.0004C40 26.8288 39.3284 27.5004 38.5 27.5004L1.5 27.5004C0.671573 27.5004 0 26.8288 0 26.0004V26.0004Z" fill="white"/>
</svg>
