<svg width="43" height="43" viewBox="0 0 43 43" fill="none" xmlns="http://www.w3.org/2000/svg"><path d="M21.4961 42.6064C33.3508 42.6064 42.9921 33.0533 42.9921 21.3071C43 9.55306 33.3508 0 21.4961 0C9.64133 0 0 9.55306 0 21.2993C0 33.0455 9.64133 42.6064 21.4961 42.6064ZM15.486 17.1003C15.486 16.9208 15.6278 16.7803 15.8089 16.7803H18.1247V13.1355C18.1247 10.5989 20.2042 8.53844 22.7642 8.53844H27.1359C27.3171 8.53844 27.4589 8.67893 27.4589 8.85844V12.636C27.4589 12.8155 27.3171 12.956 27.1359 12.956H24.5523C23.9143 12.956 23.4023 13.4633 23.4023 14.0955V16.7803H27.0808C27.2698 16.7803 27.4195 16.9442 27.4037 17.1315L27.0808 20.909C27.065 21.0729 26.9232 21.2056 26.7578 21.2056H23.4023V33.7557C23.4023 33.9352 23.2605 34.0757 23.0793 34.0757H18.4556C18.2744 34.0757 18.1326 33.9352 18.1326 33.7557V21.4007V21.1978H15.8168C15.6356 21.1978 15.4939 21.0573 15.4939 20.8778V17.1003H15.486Z" fill="white"></path></svg>