<svg width="43" height="43" viewBox="0 0 43 44" fill="none" xmlns="http://www.w3.org/2000/svg"><path d="M21.4959 43.0642C33.2718 43.0642 42.8502 33.5735 42.8502 21.9054C42.8502 10.2372 33.2718 0.746582 21.4959 0.746582C9.71991 0.746582 0.141602 10.2294 0.141602 21.8976C0.141602 33.5657 9.71991 43.0642 21.4959 43.0642ZM8.18392 16.4342C8.18392 12.0011 11.8073 8.41088 16.2814 8.41088H26.9703C31.4444 8.41088 35.0678 12.0011 35.0678 16.4342V27.0253C35.0678 31.4584 31.4444 35.0486 26.9703 35.0486H16.2814C11.8073 35.0486 8.18392 31.4584 8.18392 27.0253V16.4342Z" fill="white"></path><path d="M21.6774 26.1122C24.0247 26.1122 25.9309 24.2234 25.9309 21.8976C25.9309 19.5717 24.0247 17.683 21.6774 17.683C19.33 17.683 17.4238 19.5717 17.4238 21.8976C17.4238 24.2234 19.33 26.1122 21.6774 26.1122Z" fill="white"></path><path d="M16.2818 32.5355H26.9708C30.0427 32.5355 32.5318 30.0692 32.5318 27.0253V16.4342C32.5318 13.3903 30.0427 10.924 26.9708 10.924H16.2818C13.2098 10.924 10.7207 13.3903 10.7207 16.4342V27.0253C10.7207 30.0692 13.2098 32.5355 16.2818 32.5355ZM28.7037 13.3123C29.578 13.3123 30.2869 14.0147 30.2869 14.881C30.2869 15.7474 29.578 16.4498 28.7037 16.4498C27.8293 16.4498 27.1204 15.7474 27.1204 14.881C27.1204 14.0147 27.8293 13.3123 28.7037 13.3123ZM21.6775 15.3181C25.3402 15.3181 28.3177 18.2683 28.3177 21.8976C28.3177 25.5268 25.3402 28.477 21.6775 28.477C18.0147 28.477 15.0372 25.5268 15.0372 21.8976C15.0372 18.2761 18.0147 15.3181 21.6775 15.3181Z" fill="white"></path></svg>