<svg viewBox="0 0 225 170" fill="none" xmlns="http://www.w3.org/2000/svg">
<path d="M208.935 0H0V128.9H208.935V0Z" fill="#B6D8EF"/>
<path d="M198.946 8.64307H9.98877V120.279H198.946V8.64307Z" fill="white"/>
<path d="M141.592 109.793H22.4253C22.4253 109.793 23.0154 64.7132 37.638 58.2419C52.2606 51.7706 62.0527 84.3684 68.9378 84.8072C75.8229 85.2459 75.2109 58.1102 85.2434 54.0958C111.057 43.7417 108.434 84.5878 113.155 84.171C117.898 83.7323 122.139 46.4399 128.652 46.4399C144.608 46.418 141.592 109.793 141.592 109.793Z" fill="#B6D8EF"/>
<path d="M141.592 109.793H22.4253C22.4253 109.793 25.4416 71.3601 40.0642 64.8888C54.6868 58.4174 61.1566 89.5017 68.0417 89.9404C74.9268 90.3791 81.3747 68.3547 92.1285 67.4773C102.882 66.6217 110.205 92.9457 114.926 92.5289C119.669 92.0902 122.182 50.6519 128.696 50.6519C141.592 50.6299 141.592 109.793 141.592 109.793Z" fill="#5CB5FE"/>
<path d="M141.592 109.793H22.4253C22.4253 109.793 26.294 90.7961 40.9166 84.3248C55.5392 77.8535 63.2986 95.7757 70.1837 96.1925C77.0688 96.6313 79.8665 70.6144 90.6204 69.7369C101.374 68.8814 95.4071 101.15 112.456 101.15C124.827 101.15 122.947 74.5849 129.461 74.5849C142.357 74.5849 141.592 109.793 141.592 109.793Z" fill="#FF5776"/>
<path d="M190.815 44.3999H155.472V50.608H190.815V44.3999Z" fill="#B6D8EF"/>
<path d="M190.815 58.2417H155.472V64.4498H190.815V58.2417Z" fill="#B6D8EF"/>
<path d="M190.815 72.062H155.472V78.2701H190.815V72.062Z" fill="#5CB5FE"/>
<path d="M190.815 85.9038H155.472V92.1119H190.815V85.9038Z" fill="#B6D8EF"/>
<path d="M190.815 99.7241H155.472V105.932H190.815V99.7241Z" fill="#FF5776"/>
<path d="M25.6608 15.3335H19.2129V21.8048H25.6608V15.3335Z" fill="#5CB5FE"/>
<path d="M61.1352 15.3335H31.8682V21.8048H61.1352V15.3335Z" fill="#B6D8EF"/>
<path d="M25.6608 26.2144H19.2129V32.6857H25.6608V26.2144Z" fill="#5CB5FE"/>
<path d="M61.1352 26.2144H31.8682V32.6857H61.1352V26.2144Z" fill="#B6D8EF"/>
<path d="M25.6608 37.0728H19.2129V43.5441H25.6608V37.0728Z" fill="#5CB5FE"/>
<path d="M61.1352 37.0728H31.8682V43.5441H61.1352V37.0728Z" fill="#B6D8EF"/>
<path d="M190.815 15.3335H98.9263V24.3495H190.815V15.3335Z" fill="#B6D8EF"/>
<path d="M119.954 34.5283H73.8564V42.1623H119.954V34.5283Z" fill="#B6D8EF"/>
<path d="M80.7196 17.0666C83.0146 17.2421 85.1348 18.2293 85.1348 20.5326L81.3097 20.5545C81.2879 19.6771 80.3917 19.5016 79.8234 19.5016C79.4737 19.5016 78.3371 19.5016 78.3371 20.2255C78.3371 21.8049 85.4189 20.1158 85.4408 24.6128C85.4626 27.311 83.3643 28.3201 80.7852 28.5175L80.96 31.3693L78.6213 31.3912L78.7524 28.5175C76.37 28.2762 74.1405 27.1794 74.1187 24.7444L77.9655 24.7225V24.8103C77.9874 25.8632 79.1677 26.0826 79.7797 26.0606C80.3699 26.0606 81.5065 26.0168 81.5065 25.227C81.5065 23.5818 74.4247 25.1174 74.4028 20.7958C74.3809 18.2951 76.3044 17.3079 78.6868 17.0885L78.5338 14.2148H80.8726L80.7196 17.0666Z" fill="#5CB5FE"/>
<path d="M95.7133 20.818L92.1068 13.7544L88.4785 20.818H90.9703V31.3695H93.2653V20.818H95.7133Z" fill="#FF5776"/>
<path d="M195.886 58.7905C195.886 58.7905 192.498 60.8525 189.657 66.5561C186.815 72.2377 185.045 75.3088 184.695 75.0236C183.187 73.8171 179.187 70.3731 173.351 61.1816C172.63 60.0628 173.373 59.3389 173.395 58.4615C173.417 57.584 174.597 55.5658 174.335 54.9955C174.072 54.4251 173.373 54.5567 172.695 55.9387C172.018 57.3207 172.236 58.1763 171.69 57.7814C171.144 57.3866 169.788 55.6974 169.351 54.9735C168.914 54.2715 167.537 52.8676 167.165 53.087C166.816 53.3063 166.728 53.6793 168.805 56.6626C168.062 55.6097 166.204 53.1308 165.57 53.7231C165.089 54.1619 166.925 56.3775 167.734 57.3427C167.034 56.531 165.417 54.7761 164.849 55.3684C164.149 56.0704 167.581 58.6808 167.581 58.6808C167.581 58.6808 165.023 56.6407 164.674 57.233C164.324 57.8253 165.81 59.1634 167.297 59.9751C168.761 60.8087 169.023 61.0938 169.614 61.401C169.985 61.5984 170.597 62.5417 170.947 63.134C170.969 63.1778 181.679 86.2113 185.526 84.0835C189.373 81.9556 194.487 74.4094 194.487 74.4094C194.487 74.4094 195.908 72.0402 196.476 68.3768C196.957 65.196 196.651 60.7648 195.886 58.7905Z" fill="#F88667"/>
<path d="M187.537 68.6619C188.324 66.8412 192.805 57.7155 195.996 56.3555L200.28 58.0446C202.182 60.4137 199.755 66.0295 198.969 66.6657C198.313 67.1922 195.122 73.7732 194.466 74.4532C190.335 71.4918 187.537 68.6619 187.537 68.6619Z" fill="#DE0C4B"/>
<path d="M203.733 43.1934L209.896 44.1586C209.896 44.1586 208.17 49.6427 210.814 54.3372C210.814 54.3372 206.377 59.1413 203.296 57.869C199.995 56.5089 201.219 53.1745 201.219 53.1745C201.219 53.1745 204.607 50.4983 203.733 43.1934Z" fill="#E45940"/>
<path d="M216.082 158.69C216.082 158.69 217.743 165.315 216.803 166.39C215.864 167.465 202.05 169.834 200.716 168.737C199.383 167.64 199.798 165.446 202.618 164.24C205.634 162.968 207.274 163.604 209.131 162.529C210.989 161.454 210.071 158.427 210.071 158.427L216.082 158.69Z" fill="#110239"/>
<path d="M198.903 157.549C198.903 157.549 199.23 165.841 198.138 166.762C197.045 167.684 183.034 167.903 181.876 166.609C180.717 165.314 181.395 163.472 184.236 162.836C186.794 162.265 188.695 162.77 190.662 161.936C192.389 161.19 193.263 157.308 193.263 157.308L198.903 157.549Z" fill="#110239"/>
<path d="M192.979 88.3829L210.989 85.1802C210.989 85.1802 204.17 122.385 203.274 126.684C202.378 130.984 199.689 159.26 199.689 159.26L191.842 158.339C191.842 158.339 191.93 127.43 192.323 124.666C192.717 121.902 192.979 88.3829 192.979 88.3829Z" fill="#323B69"/>
<path d="M199.646 103.19C198.75 97.355 199.362 92.8141 198.072 89.9843C197.569 88.8655 195.908 89.1507 195.515 87.988C195.733 87.7248 195.93 87.4177 196.083 87.0886L211.033 84.8511C211.033 84.8511 204.258 116.922 202.487 124.798C202.487 124.798 200.345 107.841 199.646 103.19Z" fill="#222B51"/>
<path d="M200.454 86.584L214.924 90.2693C214.924 90.2693 216.782 95.5999 215.798 102.313C214.618 110.385 214.487 123.043 214.334 124.776C214.202 126.487 217.044 153.776 217.262 160.291L209.459 160.62C209.459 160.62 203.492 126.443 203.143 125.697C202.793 124.951 200.454 86.584 200.454 86.584Z" fill="#323B69"/>
<path d="M193.766 73.8606C194.072 67.7403 192.433 58.5269 195.995 56.3552C198.99 54.5344 201.46 53.0647 201.46 53.0647C201.46 53.0647 202.356 55.2583 204.498 55.5435C206.64 55.8287 210.028 52.604 210.028 52.604C210.028 52.604 213.94 54.9074 217.459 56.4868C216.607 59.3166 218.355 61.8613 218.355 64.6911C218.355 66.3583 218.574 67.85 218.967 69.2978C217.547 72.3689 216.148 75.3743 215.842 77.546C215.055 83.1179 217.569 91.6732 217.569 91.6732C217.569 91.6732 211.886 93.0552 204.17 93.7133C200.017 94.0643 195.187 93.2088 190.946 92.1339C190.968 92.1119 193.46 79.9809 193.766 73.8606Z" fill="#DE0C4B"/>
<path d="M218.968 69.2759C218.858 68.8591 218.793 68.4203 218.705 68.0036C218.64 67.6964 218.552 67.3893 218.509 67.0603C218.399 66.2925 218.356 65.5028 218.356 64.6911C218.356 63.3091 218.268 61.8174 218.246 60.3477C217.525 60.8741 216.629 62.1684 215.733 61.6419C211.58 59.207 211.011 70.3508 211.011 75.9666C211.011 81.5604 210.88 88.1414 208.651 93.2307C213.962 92.5507 217.547 91.6732 217.547 91.6732C217.547 91.6732 217.197 90.4667 216.804 88.6679C216.607 87.7685 216.388 86.7155 216.214 85.5968C216.148 85.2238 216.082 84.8509 216.039 84.456C215.886 83.2934 215.755 82.0869 215.711 80.9023C215.667 79.7177 215.689 78.577 215.842 77.5241C216.148 75.3523 217.525 72.347 218.968 69.2759Z" fill="#C10E49"/>
<path d="M209.787 32.993C209.787 32.993 200.979 31.6548 199.951 32.642C198.946 33.6291 198.771 37.1829 198.815 40.1882C198.859 43.1935 197.591 48.9628 201.088 50.0377C204.585 51.1126 211.274 47.8221 213.634 41.8554C216.65 34.2433 210.377 33.0807 209.787 32.993Z" fill="#F88667"/>
<path d="M211.274 32.2691C211.274 32.2691 207.099 32.4007 206.378 38.7185C206.05 41.5703 205.329 43.742 206.203 43.8955C207.077 44.0272 207.974 43.4349 207.974 42.6232C207.974 41.8116 208.236 39.1353 209.897 39.8811C211.558 40.627 210.99 43.8517 208.892 44.773C208.892 44.773 208.454 46.5938 210.137 47.6028C210.137 47.6028 214.531 44.8169 215.165 39.8811C215.798 34.9234 213.941 32.1375 211.274 32.2691Z" fill="#110239"/>
<path d="M212.935 32.8394C212.935 32.8394 211.952 28.8908 207.296 28.5617C202.641 28.2546 198.925 31.0406 196.695 34.7917C196.695 34.7917 197.963 37.0293 202.75 37.3144C204.739 37.4241 208.28 36.8757 210.05 35.9544C212.564 34.6601 212.935 32.8394 212.935 32.8394Z" fill="#110239"/>
<path d="M224.891 84.0179C224.606 82.592 223.273 74.2122 222.792 71.1191C220.082 72.0185 217.59 72.9399 214.814 73.6857C215.645 75.66 217.568 83.1404 217.787 85.1586C218.093 87.9884 216.803 100.492 216.432 104.836C216.41 105.187 216.366 105.472 216.344 105.713C216.213 106.481 215.907 107.556 215.339 108.28C214.705 109.07 212.585 111.658 212.956 112.799C213.306 113.939 215.077 111.856 215.71 111.154C216.344 110.452 216.475 112.799 216.301 114.071C216.148 115.343 213.59 117.449 213.874 118.327C214.071 118.941 214.836 118.502 215.82 117.384C215.361 118.086 215.011 118.744 215.273 118.941C215.623 119.182 216.257 118.744 216.934 117.998C216.563 118.568 216.322 119.095 216.563 119.204C216.935 119.402 217.656 118.788 218.312 118.064C217.962 118.59 217.743 119.095 217.984 119.248C218.443 119.533 219.929 118.173 220.497 116.374C220.956 114.927 219.863 110.824 219.47 108.719C219.361 108.082 219.404 107.468 219.601 106.854C220.825 103.212 225.699 87.9884 224.891 84.0179Z" fill="#F88667"/>
<path d="M214.837 76.4274C217.613 76.0106 221.372 74.8261 224.563 73.4879C223.82 68.2231 221.962 60.984 219.252 58.0884C218.487 57.2767 217.154 55.8289 215.93 56.2457C214.334 56.7941 212.258 59.0097 212.105 63.2874C212.061 64.3403 212.979 70.5923 213.722 72.6105C214.05 73.4879 214.378 75.1332 214.837 76.4274Z" fill="#DE0C4B"/>
</svg>
