<svg viewBox="0 0 217 160" fill="none" xmlns="http://www.w3.org/2000/svg">
<path d="M184.003 105.804H32.0713V128.095H184.003V105.804Z" fill="#000B3C"/>
<path d="M189.097 121.049H26.9552C21.8175 121.049 17.6377 116.874 17.6377 111.741V9.30814C17.6377 4.17562 21.8175 0 26.9552 0H189.097C194.234 0 198.414 4.17562 198.414 9.30814V111.741C198.414 116.895 194.234 121.049 189.097 121.049Z" fill="#000B3C"/>
<path d="M190.098 8.0249H25.9756V111.785H190.098V8.0249Z" fill="#FEFEFE"/>
<path d="M0.0258789 153.367V156.673C0.0258789 158.5 2.0287 159.979 4.48869 159.979H211.585C214.045 159.979 216.048 158.5 216.048 156.673V153.367H0.0258789Z" fill="#000B3C"/>
<path d="M108.026 127.835H19.3575C19.0527 128.161 5.12007 140.623 0.853183 149.866C-0.97548 153.824 0.221859 155.912 3.61795 155.912H108.004H212.39C215.786 155.912 216.962 153.824 215.155 149.866C210.888 140.601 196.956 128.139 196.651 127.835H108.026Z" fill="#000B3C"/>
<path d="M204.814 151.193H15.896L29.0014 131.837H191.731L204.814 151.193Z" fill="#323B69"/>
<path d="M202.507 147.8L202.093 147.191H189.488L187.137 142.493H198.915L198.501 141.884H186.833L184.481 137.187H195.323L194.909 136.578H184.198L181.825 131.815H180.737L183.066 136.578H169.569L167.675 131.815H166.587L168.437 136.578H154.94L153.525 131.815H152.436L153.808 136.578H140.31L139.374 131.815H138.286L139.178 136.578H125.681L125.246 131.815H124.157L124.571 136.578H111.77V131.815H110.573V136.578H97.2933L97.7069 131.815H96.6184L96.1831 136.578H82.6858L83.5783 131.815H82.4898L81.5537 136.578H68.0565L69.428 131.815H68.3395L66.9244 136.578H53.4272L55.2776 131.815H54.1891L52.2951 136.578H38.7978L41.1272 131.815H40.0387L37.6876 136.578H25.7795L25.3659 137.187H37.3828L35.0317 141.884H22.1875L21.7956 142.493H34.7487L32.3975 147.191H18.6172L18.2036 147.8H32.0927L30.3947 151.192H31.6356L33.3119 147.8H47.8541L46.5044 151.192H47.7452L49.0732 147.8H63.6154L62.614 151.192H63.8549L64.8345 147.8H79.3768L78.7237 151.192H79.9646L80.5741 147.8H95.1163L94.7898 151.192H96.0307L96.3137 147.8H110.551V151.192H111.748V147.8H125.507L125.79 151.192H127.031L126.704 147.8H141.247L141.878 151.192H143.119L142.466 147.8H157.008L157.988 151.192H159.228L158.227 147.8H172.769L174.097 151.192H175.338L173.988 147.8H188.531L190.207 151.192H191.448L189.75 147.8H202.507ZM53.1877 137.187H66.7503L65.357 141.884H51.359L53.1877 137.187ZM38.5148 137.187H52.0774L50.2052 141.884H36.2072L38.5148 137.187ZM48.0936 147.191H33.5949L35.9025 142.493H49.944L48.0936 147.191ZM63.7896 147.191H49.2909L51.1196 142.493H65.1611L63.7896 147.191ZM79.4856 147.191H64.9869L66.3367 142.493H80.3782L79.4856 147.191ZM80.5088 141.884H66.5108L67.8605 137.187H81.4231L80.5088 141.884ZM95.1816 147.191H80.683L81.5537 142.493H95.5953L95.1816 147.191ZM95.6823 141.884H81.6844L82.5552 137.187H96.1177L95.6823 141.884ZM110.573 147.191H96.4007L96.7926 142.493H110.573V147.191ZM110.573 141.884H96.8362L97.228 137.187H110.551V141.884H110.573ZM111.77 137.187H124.636L125.028 141.884H111.77V137.187ZM111.77 147.191V142.493H125.093L125.485 147.191H111.77ZM183.371 137.187L185.679 141.884H171.681L169.809 137.187H183.371ZM168.698 137.187L170.527 141.884H156.529L155.136 137.187H168.698ZM125.768 137.187H139.331L140.202 141.884H126.204L125.768 137.187ZM126.704 147.191L126.269 142.493H140.31L141.181 147.191H126.704ZM140.441 137.187H154.004L155.353 141.884H141.355L140.441 137.187ZM142.4 147.191L141.486 142.493H155.528L156.877 147.191H142.4ZM158.096 147.191L156.703 142.493H170.745L172.573 147.191H158.096ZM173.792 147.191L171.92 142.493H185.962L188.269 147.191H173.792Z" fill="#D0D1DE"/>
<path d="M108.026 155.933H98.8605C98.8605 155.955 98.8387 156.738 99.3177 157.194C99.4918 157.368 99.7531 157.455 100.014 157.455H108.047H116.08C116.342 157.455 116.603 157.368 116.777 157.194C117.256 156.738 117.234 155.955 117.234 155.933H108.026Z" fill="#110239"/>
<path d="M172.77 102.324H43.3047V23.4009H172.77V102.324ZM45.7211 99.9103H170.353V25.8149H45.7211V99.9103Z" fill="#B6D8EF"/>
<path d="M153.939 43.2783H141.9V94.7558H153.939V43.2783Z" fill="#FF5776"/>
<path d="M131.625 71.0723H119.586V94.7558H131.625V71.0723Z" fill="#B6D8EF"/>
<path d="M109.311 65.353H97.272V94.7563H109.311V65.353Z" fill="#0086CB"/>
<path d="M86.9967 48.7153H74.958V94.7558H86.9967V48.7153Z" fill="#B6D8EF"/>
<path d="M64.7042 58.8066H52.6655V94.7561H64.7042V58.8066Z" fill="#B6D8EF"/>
<path d="M125.877 61.8947L102.997 57.3494L80.9664 36.3191L59.0659 55.6531L58.2822 54.7397L81.0099 34.688L103.585 56.2403L125.333 60.5681L147.43 29.4902L148.409 30.1862L125.877 61.8947Z" fill="#110239"/>
<path d="M61.3956 55.1965C61.3956 56.6971 60.1765 57.915 58.6744 57.915C57.1722 57.915 55.9531 56.6971 55.9531 55.1965C55.9531 53.6959 57.1722 52.478 58.6744 52.478C60.1765 52.478 61.3956 53.6959 61.3956 55.1965Z" fill="#FD425F"/>
<path d="M80.836 38.2329C82.3389 38.2329 83.5572 37.0158 83.5572 35.5144C83.5572 34.013 82.3389 32.7959 80.836 32.7959C79.3331 32.7959 78.1147 34.013 78.1147 35.5144C78.1147 37.0158 79.3331 38.2329 80.836 38.2329Z" fill="#FF5776"/>
<path d="M106.002 56.7839C106.002 58.2845 104.782 59.5024 103.28 59.5024C101.778 59.5024 100.559 58.2845 100.559 56.7839C100.559 55.2833 101.778 54.0654 103.28 54.0654C104.804 54.0654 106.002 55.2833 106.002 56.7839Z" fill="#FF5776"/>
<path d="M128.316 60.6121C128.316 62.1127 127.096 63.3306 125.594 63.3306C124.092 63.3306 122.873 62.1127 122.873 60.6121C122.873 59.1114 124.092 57.8936 125.594 57.8936C127.096 57.9153 128.316 59.1332 128.316 60.6121Z" fill="#FF5776"/>
<path d="M150.629 30.3821C150.629 31.8827 149.41 33.1006 147.908 33.1006C146.406 33.1006 145.187 31.8827 145.187 30.3821C145.187 28.8815 146.406 27.6636 147.908 27.6636C149.41 27.6636 150.629 28.8815 150.629 30.3821Z" fill="#FF5776"/>
<path d="M80.4655 50.5203C81.3363 50.2376 82.1854 49.9766 82.7949 49.3242C83.0779 49.0197 83.3392 48.6935 83.731 48.5413C84.1229 48.3673 84.5147 48.0193 84.8848 47.7366C85.2331 47.4756 85.6032 47.1059 86.1039 47.0624C86.6917 47.0189 86.3869 47.6931 86.1039 48.1063C85.7991 48.563 84.2317 49.1937 84.297 49.7592C84.3623 50.3246 86.2563 49.4547 86.6264 49.2589C87.4972 48.824 87.5625 48.1063 88.085 47.3886C88.3897 46.9754 88.651 46.8667 88.8469 47.4321C88.9775 47.8453 88.6945 48.2803 88.4768 48.6283C88.0414 49.3459 87.4101 50.0419 86.6699 50.4551C87.2795 50.1941 88.1067 49.4329 88.5421 48.911C88.8469 48.563 89.8266 46.8232 90.4361 47.2364C91.6334 48.0628 88.3244 51.1293 87.5407 51.3685C88.3027 51.0423 88.9122 50.4986 89.5218 49.9331C89.8919 49.6069 90.6973 48.824 90.828 49.6722C91.0239 50.9335 88.5639 51.847 87.5407 52.4559C88.3462 52.2819 88.8904 51.9122 89.6524 51.5207C90.5667 51.064 90.5885 51.8905 89.7395 52.5211C89.3694 52.7821 88.5639 53.1953 88.3897 53.2823C86.5175 54.1957 85.3637 54.1957 83.3609 53.9783C82.6425 53.8913 81.2492 54.522 80.8356 54.0653C79.9866 53.2171 80.422 51.5425 80.4655 50.5203Z" fill="#F88667"/>
<path d="M80.9882 50.2591L82.4468 55.0871C82.4468 55.0871 65.3575 59.502 61.2212 60.1327C57.0632 60.7851 47.9417 50.3461 47.9417 50.3461C47.9417 50.3461 44.8286 42.7995 47.1579 42.8865C48.9431 42.9735 62.0267 52.9341 62.7451 53.3255C63.4635 53.7387 80.9882 50.2591 80.9882 50.2591Z" fill="#DE0C4B"/>
<path d="M36.2292 136.403C36.2292 136.403 36.0986 139.665 36.6646 141.209C37.2089 142.732 41.171 145.08 41.171 145.08C41.171 145.08 37.6007 145.776 36.2292 144.711C34.8577 143.645 31.614 138.121 31.8317 137.403C32.0494 136.686 33.0291 134.467 33.0291 134.467L36.2292 136.403Z" fill="#F88667"/>
<path d="M57.4983 134.402C57.4983 134.402 57.3677 137.665 57.9337 139.209C58.4779 140.753 62.44 143.08 62.44 143.08C62.44 143.08 58.8698 143.776 57.4983 142.71C56.1268 141.644 52.8831 136.12 53.1008 135.403C53.3185 134.685 54.2981 132.467 54.2981 132.467L57.4983 134.402Z" fill="#F88667"/>
<path d="M32.6376 136.403C32.6376 136.403 29.6333 137.404 30.3953 140.013C31.1355 142.623 31.0266 145.994 31.0266 145.994H31.8974C31.8974 145.994 32.0933 142.254 32.6376 142.384C33.2036 142.515 34.4445 145.994 35.6853 145.994C36.9262 145.994 42.7388 145.994 42.7388 145.994C42.7388 145.994 43.4789 145.255 42.7388 144.82C41.9986 144.385 37.2092 144.581 36.665 143.515C36.1207 142.449 32.6376 136.403 32.6376 136.403Z" fill="#110239"/>
<path d="M54.0586 134.337C54.0586 134.337 51.0761 135.337 51.8163 137.947C52.5565 140.557 52.4476 143.928 52.4476 143.928H53.3184C53.3184 143.928 53.5143 140.187 54.0586 140.318C54.6246 140.448 55.8655 143.928 57.1064 143.928C58.3472 143.928 64.1598 143.928 64.1598 143.928C64.1598 143.928 64.8999 143.188 64.1598 142.753C63.4196 142.318 58.6302 142.514 58.086 141.449C57.5417 140.361 54.0586 134.337 54.0586 134.337Z" fill="#110239"/>
<path d="M52.0775 69.2886C52.0775 69.2886 43.6962 72.2246 37.6224 69.2886C37.6224 69.2886 33.9433 72.3768 33.3555 78.6837C33.1813 80.6193 33.2684 82.9681 33.595 85.7736C34.0086 89.275 35.0318 98.4744 34.4004 104.129C33.4643 112.437 30.8955 136.512 30.8955 136.512L36.6863 137.403C36.6863 137.403 41.9981 108.348 42.6294 104.76C43.2608 101.171 45.2853 86.6 45.2853 86.6C45.2853 86.6 48.8774 97.8654 49.8135 103.324C49.9659 104.151 52.5129 135.011 52.5129 135.011L58.1078 134.968C58.1078 134.968 57.803 100.693 57.803 102.498C57.7812 103.237 56.2573 79.3796 52.0775 69.2886Z" fill="#5CB5FE"/>
<path d="M49.1606 91.1239C47.898 87.318 47.136 85.4042 44.5454 81.9897C44.8066 83.5556 45.0461 85.1215 45.242 86.6873C45.2638 86.6438 45.2638 86.6003 45.2638 86.6003C45.2638 86.6003 48.3334 96.2564 49.5307 102.02C49.4001 95.778 50.0967 93.9294 49.1606 91.1239Z" fill="#00A7CC"/>
<path d="M46.1344 35.0574C45.5466 34.9269 42.7819 29.0767 41.5845 27.9458C41.0185 31.9474 38.6021 41.4296 38.6021 41.4296C41.541 44.583 47.3971 42.6474 47.3971 42.6474C46.4392 40.5814 45.982 36.4275 46.1344 35.0574Z" fill="#E45940"/>
<path d="M44.9806 21.1168C44.9806 21.1168 50.6843 22.4 51.7728 24.0528C52.8612 25.7057 52.8612 30.0335 53.4708 31.1862C53.8409 31.8821 54.1674 32.4258 54.3416 32.839C54.494 33.187 54.1021 33.4044 53.6014 33.5784C53.3402 33.6654 53.1442 33.8829 53.0789 34.1221C52.7306 35.166 51.7945 37.841 50.8584 38.2108C49.6828 38.6675 43.8703 38.4935 42.1287 33.4479C40.3654 28.4024 41.3232 20.0294 44.9806 21.1168Z" fill="#F88667"/>
<path d="M39.4728 39.4507C39.4728 39.4507 43.522 41.2993 47.2882 42.4084C47.2882 42.4084 51.8816 51.4773 52.2081 54.0218C52.5129 56.5446 54.8858 73.8125 54.8858 73.8125C54.8858 73.8125 45.786 79.5975 32.5718 75.0087C32.5718 75.0087 35.7502 61.4162 35.01 56.0444C34.2916 50.6944 34.9229 43.4306 39.4728 39.4507Z" fill="#DE0C4B"/>
<path d="M37.8838 76.3787C37.7314 70.5937 39.0594 65.3525 39.1682 59.5675C39.2553 54.8917 37.3396 52.2384 34.9884 49.3677C34.7272 51.673 34.749 54 35.032 56.0443C35.7504 61.4161 32.5938 75.0086 32.5938 75.0086C34.4224 75.6828 36.1858 76.096 37.8838 76.3787Z" fill="#C10E49"/>
<path d="M32.572 55.4353C35.7722 52.7603 34.466 50.107 37.7097 47.5625C37.9491 47.3885 38.1886 47.1928 38.4063 47.0188C38.5805 45.627 35.2061 46.3446 36.1422 44.9528C37.4484 42.9955 42.8909 40.016 42.7603 38.1022C42.6732 36.7973 42.6514 37.6019 42.8909 36.2971C43.1739 34.8182 43.8052 34.5355 42.6296 33.4481C41.8242 32.6869 41.1275 31.8605 41.7806 30.7296C42.3031 29.7944 43.1521 29.5334 43.8705 30.4034C44.0664 30.6426 45.0243 32.5564 45.2638 31.469C45.3291 31.1645 44.9372 30.5773 44.8937 30.2511C44.8284 29.7292 44.9372 29.403 45.2856 29.0332C45.8516 28.4243 46.7006 28.0981 47.3101 27.4891C48.0503 26.728 48.1374 25.7058 49.2259 25.2926C49.7484 25.0751 50.4015 25.0751 50.9457 25.2273C51.2069 25.2926 52.2737 26.032 52.4478 25.945C54.2983 25.2273 53.471 22.3784 52.2084 21.4867C49.9878 19.9426 47.1142 18.7899 44.3712 18.8552C41.0404 18.9204 37.9927 21.5084 36.0552 24.0095C34.6401 25.8145 34.749 27.7501 33.7258 29.6857C32.8115 31.469 30.8086 32.3389 29.6113 33.9483C28.4793 35.4489 28.4793 37.4062 28.9147 39.1678C29.263 40.5379 29.6331 41.7993 29.4154 43.2129C29.1324 44.9745 27.7173 46.2794 27.2384 47.9757C26.803 49.5198 26.5418 50.542 27.1513 52.8255C28.0003 55.979 29.8943 56.8272 32.572 55.4353Z" fill="#110239"/>
<path d="M27.6304 84.1865C27.6957 85.0564 27.761 85.8828 28.2399 86.6005C28.4576 86.9267 28.6971 87.2529 28.7841 87.6444C28.8712 88.0576 29.1107 88.4926 29.2849 88.884C29.459 89.2538 29.7202 89.6887 29.6549 90.1672C29.5679 90.7109 29.0236 90.2759 28.6753 89.9497C28.3052 89.58 28.0657 87.9706 27.5215 87.9054C26.9773 87.8401 27.3909 89.7975 27.478 90.1672C27.6957 91.0806 28.3488 91.2981 28.893 91.9288C29.2195 92.2985 29.2413 92.5812 28.6753 92.6247C28.2617 92.6682 27.9134 92.2985 27.6304 92.0158C27.0643 91.4721 26.5419 90.7109 26.3242 89.9279C26.433 90.5586 26.9555 91.4938 27.3473 91.994C27.6086 92.342 29.0018 93.6469 28.5011 94.1036C27.4562 95.0387 25.3445 91.2981 25.301 90.5151C25.4316 91.2981 25.8235 91.9723 26.1935 92.6682C26.4112 93.0814 26.9773 93.9948 26.15 93.9513C24.9309 93.8643 24.6261 91.3851 24.2778 90.2977C24.256 91.0806 24.4955 91.6678 24.6914 92.4725C24.9309 93.4294 24.1472 93.2554 23.7336 92.3202C23.5594 91.9288 23.3635 91.0806 23.3199 90.9066C22.8845 88.971 23.124 87.8836 23.7553 86.1003C23.973 85.4479 23.7118 84.0342 24.2343 83.7298C25.2357 83.1861 26.6942 83.9472 27.6304 84.1865Z" fill="#F88667"/>
<path d="M28.3051 84.2515L23.0586 84.5342C23.0586 84.5342 22.9933 69.0062 24.3865 63.7432C25.7798 58.4801 35.7286 44.2787 38.0144 43.1913C40.7357 41.8864 48.834 45.3443 42.9126 49.9549C36.9695 54.5655 31.3529 65.5265 31.1134 65.9832C30.8739 66.4399 28.3051 84.2515 28.3051 84.2515Z" fill="#DE0C4B"/>
</svg>
