<svg width="43" height="43" viewBox="0 0 43 44" fill="none" xmlns="http://www.w3.org/2000/svg"><path d="M21.4957 43.3625C33.3268 43.3625 42.9603 33.8251 42.9603 22.0945C42.9603 10.3717 33.3347 0.826416 21.4957 0.826416C9.65676 0.826416 0.0390625 10.3717 0.0390625 22.1023C0.0390625 33.8251 9.66464 43.3625 21.4957 43.3625ZM16.1316 31.6632C16.1316 31.8583 15.974 32.0222 15.7692 32.0222H11.6339C11.4369 32.0222 11.2715 31.8661 11.2715 31.6632V17.9111C11.2715 17.716 11.4291 17.5521 11.6339 17.5521H15.7692C15.9662 17.5521 16.1316 17.7082 16.1316 17.9111V31.6632ZM18.8255 17.9111C18.8255 17.716 18.983 17.5521 19.1878 17.5521H23.3153C23.5122 17.5521 23.6776 17.7082 23.6776 17.9111V19.6047C24.3235 18.6213 25.4736 17.2165 28.0493 17.2165C31.2395 17.2165 33.634 19.2848 33.634 23.7257V31.6632C33.634 31.8583 33.4765 32.0222 33.2717 32.0222H29.1363C28.9394 32.0222 28.774 31.8661 28.774 31.6632V24.2798C28.774 22.3364 28.073 21.0096 26.3164 21.0096C24.9773 21.0096 24.1818 21.8994 23.8273 22.7657C23.7013 23.0779 23.6698 23.5071 23.6698 23.9364V31.6632C23.6698 31.8583 23.5122 32.0222 23.3074 32.0222H19.1721C18.9751 32.0222 18.8097 31.8661 18.8097 31.6632C18.8255 29.6963 18.8649 20.1511 18.8255 17.9111ZM13.5558 10.559C14.9894 10.559 16.1552 11.7141 16.1552 13.1346C16.1552 14.555 14.9894 15.7102 13.5558 15.7102C12.1222 15.7102 10.9564 14.555 10.9564 13.1346C10.9564 11.7141 12.1222 10.559 13.5558 10.559Z" fill="white"></path></svg>